<svg xmlns="http://www.w3.org/2000/svg" version="1.0" preserveAspectRatio="xMidYMid meet" viewBox="87.39 166.58 399.71 102.52">
<g transform="translate(0.000000,435.000000) scale(0.100000,-0.100000)" fill="#dc2626" stroke="none"><path d="M1512 2651 c-34 -21 -65 -40 -68 -43 -6 -6 68 -51 201 -121 22 -12 48 -28 58 -36 26 -22 21 -9 -34 86 -29 48 -58 100 -66 115 -8 15 -17 30 -21 32 -4 2 -35 -13 -70 -33z"></path><path d="M1323 2542 c-35 -21 -59 -42 -55 -48 7 -9 93 -61 192 -116 68 -38 314 -180 325 -188 6 -4 36 -21 67 -39 66 -36 69 -47 -30 121 -53 90 -71 112 -113 138 -27 16 -51 30 -54 30 -2 0 -54 29 -115 65 -61 36 -121 67 -133 69 -14 3 -45 -9 -84 -32z"></path><path d="M1230 2070 c0 -223 4 -400 9 -400 5 0 14 7 21 15 7 8 17 15 21 15 5 0 38 17 72 39 34 21 125 75 202 119 347 198 365 209 352 220 -6 5 -56 35 -109 66 -250 143 -284 163 -298 169 -8 4 -33 18 -55 32 -22 14 -47 28 -55 32 -8 4 -33 19 -55 34 -22 14 -50 30 -62 33 -13 4 -23 12 -23 17 0 5 -4 9 -10 9 -6 0 -10 -140 -10 -400z m213 89 c7 -6 39 -25 72 -43 33 -18 60 -39 60 -46 0 -12 -36 -36 -127 -85 l-48 -25 0 105 c0 88 3 105 15 105 9 0 21 -5 28 -11z"></path><path d="M1430 2069 c0 -28 3 -49 8 -47 48 23 82 43 82 47 0 6 -75 51 -84 51 -4 0 -6 -23 -6 -51z"></path><path d="M2170 2175 l0 -265 35 0 35 0 0 166 c0 91 4 163 8 160 5 -3 35 -67 67 -143 78 -183 78 -183 129 -183 l41 1 34 77 c18 42 47 105 62 140 16 35 29 67 29 71 0 5 7 14 15 21 13 11 15 -7 15 -149 l0 -161 35 0 34 0 3 265 3 266 -39 -3 -40 -3 -94 -217 c-52 -120 -98 -218 -102 -218 -5 0 -25 42 -45 93 -36 90 -50 122 -114 259 -17 37 -31 72 -31 78 0 5 -18 10 -40 10 l-40 0 0 -265z"></path><path d="M2944 2416 c-89 -42 -144 -122 -152 -222 -9 -114 49 -216 152 -269 57 -29 175 -27 235 4 95 49 145 134 145 246 0 59 -4 79 -29 123 -70 128 -221 178 -351 118z m176 -56 c41 -11 93 -58 116 -102 10 -19 17 -56 17 -94 0 -54 -4 -67 -34 -107 -91 -121 -251 -113 -334 18 -14 22 -20 48 -20 97 0 58 4 72 30 110 51 73 136 103 225 78z"></path><path d="M3400 2175 l0 -265 48 0 48 0 54 92 c30 51 60 101 67 113 7 11 16 27 20 36 4 8 37 64 73 123 36 59 73 120 82 136 l18 30 -43 0 c-40 0 -45 -3 -68 -42 -13 -24 -29 -52 -36 -63 -7 -11 -17 -29 -22 -40 -31 -61 -149 -249 -159 -253 -9 -3 -12 45 -12 197 l0 201 -35 0 -35 0 0 -265z"></path><path d="M3882 2395 c-18 -25 -32 -48 -32 -51 0 -2 -22 -38 -50 -80 -27 -41 -50 -79 -50 -84 0 -5 -4 -10 -8 -12 -5 -1 -30 -39 -57 -83 -26 -44 -61 -99 -76 -122 -16 -23 -29 -44 -29 -47 0 -3 20 -6 44 -6 33 0 45 4 50 18 3 9 17 35 30 57 l24 40 101 3 101 3 0 -61 0 -60 35 0 35 0 0 265 0 265 -43 0 c-40 0 -46 -4 -75 -45z m48 -185 l0 -110 -70 0 c-72 0 -89 12 -55 40 8 7 15 17 15 22 0 5 6 15 13 23 6 7 29 40 50 74 20 33 39 61 42 61 3 0 5 -49 5 -110z"></path><path d="M4100 2175 l0 -265 35 0 35 0 0 104 c0 58 4 107 9 111 6 3 46 7 91 9 61 2 88 8 107 23 43 32 65 68 70 117 5 39 1 53 -21 87 -41 62 -88 79 -218 79 l-108 0 0 -265z m256 161 c29 -33 30 -65 3 -100 -19 -24 -26 -26 -105 -26 l-84 0 0 64 c0 94 -1 93 87 91 69 -1 78 -3 99 -29z"></path><path d="M4530 2433 c0 -5 -1 -124 -2 -266 l-3 -257 38 0 37 0 0 110 0 110 63 0 c115 0 179 36 202 113 23 80 -22 161 -103 185 -43 13 -232 17 -232 5z m237 -84 c42 -25 41 -106 -1 -128 -12 -7 -54 -13 -94 -14 l-72 -2 0 77 c0 52 4 78 13 81 25 9 133 0 154 -14z"></path><path d="M1123 2303 l-73 -127 0 -211 0 -210 73 -41 72 -42 3 189 c1 104 1 275 0 379 l-3 190 -72 -127z"></path><path d="M987 2068 c-11 -18 -57 -98 -113 -200 -2 -3 27 -24 66 -47 l70 -40 0 155 c0 84 -2 154 -5 154 -2 0 -11 -10 -18 -22z"></path><path d="M1780 1946 c-80 -47 -161 -93 -180 -104 -19 -11 -98 -57 -175 -101 l-140 -82 160 3 160 3 117 73 c65 39 120 72 122 72 3 0 25 14 50 31 l46 30 0 80 c0 43 -3 79 -7 79 -5 0 -73 -38 -153 -84z"></path><path d="M1915 1811 c-6 -4 -35 -22 -65 -38 -30 -17 -86 -49 -125 -71 l-70 -42 143 0 142 0 0 80 c0 77 -5 90 -25 71z"></path>
</g>
</svg>