<?xml version="1.0" standalone="no"?>
<!DOCTYPE svg PUBLIC "-//W3C//DTD SVG 20010904//EN"
 "http://www.w3.org/TR/2001/REC-SVG-20010904/DTD/svg10.dtd">
<svg version="1.0" xmlns="http://www.w3.org/2000/svg"
 width="456.000000pt" height="438.000000pt" viewBox="0 0 456.000000 438.000000"
 preserveAspectRatio="xMidYMid meet">

<g transform="translate(0.000000,438.000000) scale(0.100000,-0.100000)"
fill="#dc2626" stroke="none">
<path d="M2884 4316 c-98 -48 -250 -136 -400 -232 -48 -31 -54 -37 -42 -52 33
-40 307 -205 618 -372 265 -142 332 -180 433 -247 54 -36 100 -63 103 -60 8 7
-60 138 -161 312 -48 83 -141 245 -207 360 -194 340 -197 345 -217 345 -10 0
-67 -24 -127 -54z"/>
<path d="M2215 3899 c-85 -15 -213 -76 -353 -168 -100 -66 -182 -136 -182
-156 0 -20 368 -250 660 -412 286 -159 1166 -667 1635 -943 234 -138 384 -214
391 -197 9 24 -85 195 -351 637 -232 386 -294 454 -545 597 -58 33 -125 69
-150 80 -25 11 -137 73 -250 138 -113 66 -270 157 -350 203 -164 94 -407 217
-442 224 -12 2 -41 1 -63 -3z"/>
<path d="M1556 3442 c-29 -90 -46 -1851 -27 -2737 12 -569 17 -645 36 -645 7
0 42 27 78 59 36 33 76 62 89 66 47 14 187 90 323 175 195 121 448 269 1205
702 1063 610 1150 663 1150 708 0 25 -178 135 -730 450 -157 90 -422 242 -590
338 -168 96 -336 190 -375 209 -38 20 -139 77 -225 128 -85 51 -216 127 -290
170 -74 43 -154 91 -177 107 -84 57 -249 149 -314 173 -66 26 -92 46 -113 87
-15 29 -33 33 -40 10z m791 -1261 c17 -5 72 -35 120 -68 49 -32 146 -89 216
-128 151 -83 276 -170 296 -206 13 -24 13 -29 -3 -53 -32 -50 -265 -191 -648
-394 -42 -22 -79 -38 -82 -34 -10 9 -6 640 4 746 10 97 27 146 53 146 7 0 26
-4 44 -9z"/>
<path d="M2392 1953 c-23 -44 -21 -367 2 -390 12 -12 287 131 338 175 14 12
15 18 6 30 -21 25 -123 90 -232 148 -96 50 -106 53 -114 37z"/>
<path d="M1210 3007 c-85 -150 -202 -353 -259 -452 -57 -99 -114 -198 -127
-220 -12 -22 -34 -60 -48 -85 l-26 -45 0 -892 0 -892 137 -77 c76 -42 214
-121 307 -175 93 -55 172 -97 175 -94 9 10 13 2584 4 2907 l-8 297 -155 -272z"/>
<path d="M527 1811 c-33 -40 -89 -135 -326 -555 -105 -187 -191 -347 -191
-356 0 -15 47 -55 140 -117 68 -46 411 -243 423 -243 13 0 3 1246 -10 1279
l-9 23 -27 -31z"/>
<path d="M4385 1521 c-99 -52 -307 -170 -655 -371 -144 -83 -643 -370 -711
-409 -121 -69 -646 -373 -910 -527 -163 -96 -303 -176 -312 -180 -50 -19 3
-23 205 -18 123 2 424 9 671 14 l447 9 288 179 c298 185 562 343 717 429 50
28 164 99 253 157 l164 108 -4 316 c-2 174 -8 325 -12 335 -5 9 -13 17 -20 17
-6 0 -60 -27 -121 -59z"/>
<path d="M4474 677 c-12 -7 -41 -25 -65 -41 -46 -31 -438 -256 -445 -256 -2 0
-37 -20 -77 -43 -39 -24 -99 -59 -132 -77 -106 -59 -395 -231 -395 -236 0 -2
266 -4 590 -4 l590 0 0 283 c0 280 -6 347 -32 373 -10 11 -17 11 -34 1z"/>
</g>
</svg>
